<mxfile host="app.diagrams.net" modified="2024-03-15T23:00:39.700Z" agent="Mozilla/5.0 (Windows NT 10.0; Win64; x64) AppleWebKit/537.36 (KHTML, like Gecko) Chrome/122.0.0.0 Safari/537.36" etag="qTjB9iJDUUEpRl1i64Yv" version="24.0.7" type="device">
  <diagram name="Страница — 1" id="kF0EPSP_DVAli1l86mHS">
    <mxGraphModel dx="1450" dy="930" grid="0" gridSize="10" guides="1" tooltips="1" connect="1" arrows="1" fold="1" page="0" pageScale="1" pageWidth="827" pageHeight="1169" math="0" shadow="0">
      <root>
        <mxCell id="0" />
        <mxCell id="1" parent="0" />
        <mxCell id="QwzSk42xVicqDJRy7m8V-15" value="Интерфейс пользователя" style="shape=umlLifeline;perimeter=lifelinePerimeter;whiteSpace=wrap;html=1;container=1;dropTarget=0;collapsible=0;recursiveResize=0;outlineConnect=0;portConstraint=eastwest;newEdgeStyle={&quot;curved&quot;:0,&quot;rounded&quot;:0};fontSize=14;fillColor=#fff2cc;strokeColor=#d6b656;rounded=1;" parent="1" vertex="1">
          <mxGeometry x="-92" y="-81" width="100" height="1188" as="geometry" />
        </mxCell>
        <mxCell id="QwzSk42xVicqDJRy7m8V-24" value="" style="html=1;points=[[0,0,0,0,5],[0,1,0,0,-5],[1,0,0,0,5],[1,1,0,0,-5]];perimeter=orthogonalPerimeter;outlineConnect=0;targetShapes=umlLifeline;portConstraint=eastwest;newEdgeStyle={&quot;curved&quot;:0,&quot;rounded&quot;:0};fontSize=16;fillColor=#ffe6cc;strokeColor=#d79b00;" parent="QwzSk42xVicqDJRy7m8V-15" vertex="1">
          <mxGeometry x="44" y="69" width="10" height="47" as="geometry" />
        </mxCell>
        <mxCell id="QwzSk42xVicqDJRy7m8V-27" value="" style="html=1;points=[[0,0,0,0,5],[0,1,0,0,-5],[1,0,0,0,5],[1,1,0,0,-5]];perimeter=orthogonalPerimeter;outlineConnect=0;targetShapes=umlLifeline;portConstraint=eastwest;newEdgeStyle={&quot;curved&quot;:0,&quot;rounded&quot;:0};fontSize=16;fillColor=#ffe6cc;strokeColor=#d79b00;" parent="QwzSk42xVicqDJRy7m8V-15" vertex="1">
          <mxGeometry x="44" y="141" width="10" height="41" as="geometry" />
        </mxCell>
        <mxCell id="QwzSk42xVicqDJRy7m8V-41" value="" style="html=1;points=[[0,0,0,0,5],[0,1,0,0,-5],[1,0,0,0,5],[1,1,0,0,-5]];perimeter=orthogonalPerimeter;outlineConnect=0;targetShapes=umlLifeline;portConstraint=eastwest;newEdgeStyle={&quot;curved&quot;:0,&quot;rounded&quot;:0};fontSize=16;fillColor=#ffe6cc;strokeColor=#d79b00;" parent="QwzSk42xVicqDJRy7m8V-15" vertex="1">
          <mxGeometry x="44" y="209" width="10" height="964" as="geometry" />
        </mxCell>
        <mxCell id="QwzSk42xVicqDJRy7m8V-16" value="" style="shape=umlLifeline;perimeter=lifelinePerimeter;whiteSpace=wrap;html=1;container=1;dropTarget=0;collapsible=0;recursiveResize=0;outlineConnect=0;portConstraint=eastwest;newEdgeStyle={&quot;curved&quot;:0,&quot;rounded&quot;:0};participant=umlActor;fontSize=16;" parent="1" vertex="1">
          <mxGeometry x="-319" y="-76" width="20" height="1182" as="geometry" />
        </mxCell>
        <mxCell id="QwzSk42xVicqDJRy7m8V-23" value="" style="html=1;points=[[0,0,0,0,5],[0,1,0,0,-5],[1,0,0,0,5],[1,1,0,0,-5]];perimeter=orthogonalPerimeter;outlineConnect=0;targetShapes=umlLifeline;portConstraint=eastwest;newEdgeStyle={&quot;curved&quot;:0,&quot;rounded&quot;:0};fontSize=16;fillColor=#ffe6cc;strokeColor=#d79b00;" parent="QwzSk42xVicqDJRy7m8V-16" vertex="1">
          <mxGeometry x="5" y="64" width="10" height="1102" as="geometry" />
        </mxCell>
        <mxCell id="QwzSk42xVicqDJRy7m8V-17" value="Валидатор на уровне интерфейса" style="shape=umlLifeline;perimeter=lifelinePerimeter;whiteSpace=wrap;html=1;container=1;dropTarget=0;collapsible=0;recursiveResize=0;outlineConnect=0;portConstraint=eastwest;newEdgeStyle={&quot;curved&quot;:0,&quot;rounded&quot;:0};fontSize=12;fillColor=#fff2cc;strokeColor=#d6b656;rounded=1;" parent="1" vertex="1">
          <mxGeometry x="197" y="-81" width="100" height="1187" as="geometry" />
        </mxCell>
        <mxCell id="QwzSk42xVicqDJRy7m8V-33" value="" style="html=1;points=[[0,0,0,0,5],[0,1,0,0,-5],[1,0,0,0,5],[1,1,0,0,-5]];perimeter=orthogonalPerimeter;outlineConnect=0;targetShapes=umlLifeline;portConstraint=eastwest;newEdgeStyle={&quot;curved&quot;:0,&quot;rounded&quot;:0};fontSize=16;fillColor=#ffe6cc;strokeColor=#d79b00;" parent="QwzSk42xVicqDJRy7m8V-17" vertex="1">
          <mxGeometry x="45" y="222" width="10" height="39" as="geometry" />
        </mxCell>
        <mxCell id="QwzSk42xVicqDJRy7m8V-18" value="&lt;font style=&quot;font-size: 15px;&quot;&gt;Обработчик команд&lt;/font&gt;" style="shape=umlLifeline;perimeter=lifelinePerimeter;whiteSpace=wrap;html=1;container=1;dropTarget=0;collapsible=0;recursiveResize=0;outlineConnect=0;portConstraint=eastwest;newEdgeStyle={&quot;curved&quot;:0,&quot;rounded&quot;:0};fontSize=16;fillColor=#fff2cc;strokeColor=#d6b656;rounded=1;" parent="1" vertex="1">
          <mxGeometry x="486" y="-81" width="100" height="1184" as="geometry" />
        </mxCell>
        <mxCell id="QwzSk42xVicqDJRy7m8V-47" value="" style="html=1;points=[[0,0,0,0,5],[0,1,0,0,-5],[1,0,0,0,5],[1,1,0,0,-5]];perimeter=orthogonalPerimeter;outlineConnect=0;targetShapes=umlLifeline;portConstraint=eastwest;newEdgeStyle={&quot;curved&quot;:0,&quot;rounded&quot;:0};fontSize=16;fillColor=#ffe6cc;strokeColor=#d79b00;" parent="QwzSk42xVicqDJRy7m8V-18" vertex="1">
          <mxGeometry x="45" y="504" width="10" height="470" as="geometry" />
        </mxCell>
        <mxCell id="QwzSk42xVicqDJRy7m8V-49" value="Передать результаты отправки письма и записи UUID" style="html=1;verticalAlign=bottom;endArrow=open;dashed=1;endSize=8;curved=0;rounded=0;exitX=0;exitY=1;exitDx=0;exitDy=-5;fontSize=12;" parent="QwzSk42xVicqDJRy7m8V-18" edge="1">
          <mxGeometry relative="1" as="geometry">
            <mxPoint x="-524" y="932.9999999999993" as="targetPoint" />
            <mxPoint x="45" y="932.9999999999993" as="sourcePoint" />
          </mxGeometry>
        </mxCell>
        <mxCell id="QwzSk42xVicqDJRy7m8V-19" value="Валидатор на уровне сервера" style="shape=umlLifeline;perimeter=lifelinePerimeter;whiteSpace=wrap;html=1;container=1;dropTarget=0;collapsible=0;recursiveResize=0;outlineConnect=0;portConstraint=eastwest;newEdgeStyle={&quot;curved&quot;:0,&quot;rounded&quot;:0};fontSize=12;fillColor=#fff2cc;strokeColor=#d6b656;rounded=1;" parent="1" vertex="1">
          <mxGeometry x="775" y="-81" width="100" height="1177" as="geometry" />
        </mxCell>
        <mxCell id="QwzSk42xVicqDJRy7m8V-50" value="" style="html=1;points=[[0,0,0,0,5],[0,1,0,0,-5],[1,0,0,0,5],[1,1,0,0,-5]];perimeter=orthogonalPerimeter;outlineConnect=0;targetShapes=umlLifeline;portConstraint=eastwest;newEdgeStyle={&quot;curved&quot;:0,&quot;rounded&quot;:0};fontSize=16;fillColor=#ffe6cc;strokeColor=#d79b00;" parent="QwzSk42xVicqDJRy7m8V-19" vertex="1">
          <mxGeometry x="45" y="519" width="10" height="286" as="geometry" />
        </mxCell>
        <mxCell id="QwzSk42xVicqDJRy7m8V-20" value="Коннектор с базой данных" style="shape=umlLifeline;perimeter=lifelinePerimeter;whiteSpace=wrap;html=1;container=1;dropTarget=0;collapsible=0;recursiveResize=0;outlineConnect=0;portConstraint=eastwest;newEdgeStyle={&quot;curved&quot;:0,&quot;rounded&quot;:0};fontSize=13;fillColor=#fff2cc;strokeColor=#d6b656;rounded=1;" parent="1" vertex="1">
          <mxGeometry x="1064" y="-81" width="100" height="1178" as="geometry" />
        </mxCell>
        <mxCell id="QwzSk42xVicqDJRy7m8V-56" value="" style="html=1;points=[[0,0,0,0,5],[0,1,0,0,-5],[1,0,0,0,5],[1,1,0,0,-5]];perimeter=orthogonalPerimeter;outlineConnect=0;targetShapes=umlLifeline;portConstraint=eastwest;newEdgeStyle={&quot;curved&quot;:0,&quot;rounded&quot;:0};fontSize=16;fillColor=#ffe6cc;strokeColor=#d79b00;" parent="QwzSk42xVicqDJRy7m8V-20" vertex="1">
          <mxGeometry x="45" y="530" width="10" height="33" as="geometry" />
        </mxCell>
        <mxCell id="4E6STo8OiFJomsPPge08-11" value="" style="html=1;points=[[0,0,0,0,5],[0,1,0,0,-5],[1,0,0,0,5],[1,1,0,0,-5]];perimeter=orthogonalPerimeter;outlineConnect=0;targetShapes=umlLifeline;portConstraint=eastwest;newEdgeStyle={&quot;curved&quot;:0,&quot;rounded&quot;:0};fillColor=#ffe6cc;strokeColor=#d79b00;" parent="QwzSk42xVicqDJRy7m8V-20" vertex="1">
          <mxGeometry x="45" y="834" width="10" height="29" as="geometry" />
        </mxCell>
        <mxCell id="QwzSk42xVicqDJRy7m8V-21" value="База данных" style="shape=umlLifeline;perimeter=lifelinePerimeter;whiteSpace=wrap;html=1;container=1;dropTarget=0;collapsible=0;recursiveResize=0;outlineConnect=0;portConstraint=eastwest;newEdgeStyle={&quot;curved&quot;:0,&quot;rounded&quot;:0};fontSize=16;rounded=1;fillColor=#fff2cc;strokeColor=#d6b656;" parent="1" vertex="1">
          <mxGeometry x="1353" y="-81" width="100" height="1178" as="geometry" />
        </mxCell>
        <mxCell id="QwzSk42xVicqDJRy7m8V-59" value="" style="html=1;points=[[0,0,0,0,5],[0,1,0,0,-5],[1,0,0,0,5],[1,1,0,0,-5]];perimeter=orthogonalPerimeter;outlineConnect=0;targetShapes=umlLifeline;portConstraint=eastwest;newEdgeStyle={&quot;curved&quot;:0,&quot;rounded&quot;:0};fontSize=16;fillColor=#ffe6cc;strokeColor=#d79b00;" parent="QwzSk42xVicqDJRy7m8V-21" vertex="1">
          <mxGeometry x="46" y="537" width="10" height="80" as="geometry" />
        </mxCell>
        <mxCell id="4E6STo8OiFJomsPPge08-14" value="" style="html=1;points=[[0,0,0,0,5],[0,1,0,0,-5],[1,0,0,0,5],[1,1,0,0,-5]];perimeter=orthogonalPerimeter;outlineConnect=0;targetShapes=umlLifeline;portConstraint=eastwest;newEdgeStyle={&quot;curved&quot;:0,&quot;rounded&quot;:0};fillColor=#ffe6cc;strokeColor=#d79b00;" parent="QwzSk42xVicqDJRy7m8V-21" vertex="1">
          <mxGeometry x="46" y="832" width="10" height="30" as="geometry" />
        </mxCell>
        <mxCell id="QwzSk42xVicqDJRy7m8V-22" value="Коннектор с почтовым сервером" style="shape=umlLifeline;perimeter=lifelinePerimeter;whiteSpace=wrap;html=1;container=1;dropTarget=0;collapsible=0;recursiveResize=0;outlineConnect=0;portConstraint=eastwest;newEdgeStyle={&quot;curved&quot;:0,&quot;rounded&quot;:0};fontSize=16;fillColor=#fff2cc;strokeColor=#d6b656;rounded=1;" parent="1" vertex="1">
          <mxGeometry x="1642" y="-81" width="172" height="1179" as="geometry" />
        </mxCell>
        <mxCell id="QwzSk42xVicqDJRy7m8V-92" value="" style="html=1;points=[[0,0,0,0,5],[0,1,0,0,-5],[1,0,0,0,5],[1,1,0,0,-5]];perimeter=orthogonalPerimeter;outlineConnect=0;targetShapes=umlLifeline;portConstraint=eastwest;newEdgeStyle={&quot;curved&quot;:0,&quot;rounded&quot;:0};fontSize=16;fillColor=#ffe6cc;strokeColor=#d79b00;" parent="QwzSk42xVicqDJRy7m8V-22" vertex="1">
          <mxGeometry x="81" y="886" width="10" height="42" as="geometry" />
        </mxCell>
        <mxCell id="QwzSk42xVicqDJRy7m8V-26" value="Отобразить форму восстановления пароля" style="html=1;verticalAlign=bottom;endArrow=open;dashed=1;endSize=8;curved=0;rounded=0;exitX=0;exitY=1;exitDx=0;exitDy=-5;fontSize=12;" parent="1" source="QwzSk42xVicqDJRy7m8V-24" target="QwzSk42xVicqDJRy7m8V-23" edge="1">
          <mxGeometry relative="1" as="geometry">
            <mxPoint x="-118" y="63" as="targetPoint" />
          </mxGeometry>
        </mxCell>
        <mxCell id="QwzSk42xVicqDJRy7m8V-25" value="Перейти к восстановлению пароля" style="html=1;verticalAlign=bottom;endArrow=block;curved=0;rounded=0;entryX=0;entryY=0;entryDx=0;entryDy=5;fontSize=12;startSize=8;endSize=8;" parent="1" source="QwzSk42xVicqDJRy7m8V-23" target="QwzSk42xVicqDJRy7m8V-24" edge="1">
          <mxGeometry relative="1" as="geometry">
            <mxPoint x="-118" y="-7" as="sourcePoint" />
          </mxGeometry>
        </mxCell>
        <mxCell id="QwzSk42xVicqDJRy7m8V-29" value="Отобразить значения поля" style="html=1;verticalAlign=bottom;endArrow=open;dashed=1;endSize=8;curved=0;rounded=0;exitX=0;exitY=1;exitDx=0;exitDy=-5;fontSize=12;" parent="1" source="QwzSk42xVicqDJRy7m8V-27" target="QwzSk42xVicqDJRy7m8V-23" edge="1">
          <mxGeometry relative="1" as="geometry">
            <mxPoint x="-285" y="349" as="targetPoint" />
          </mxGeometry>
        </mxCell>
        <mxCell id="QwzSk42xVicqDJRy7m8V-28" value="Заполнить поле (email)" style="html=1;verticalAlign=bottom;endArrow=block;curved=0;rounded=0;entryX=0;entryY=0;entryDx=0;entryDy=5;fontSize=12;startSize=8;endSize=8;" parent="1" source="QwzSk42xVicqDJRy7m8V-23" target="QwzSk42xVicqDJRy7m8V-27" edge="1">
          <mxGeometry relative="1" as="geometry">
            <mxPoint x="-118" y="65" as="sourcePoint" />
          </mxGeometry>
        </mxCell>
        <mxCell id="QwzSk42xVicqDJRy7m8V-34" value="Валидация значений полей" style="html=1;verticalAlign=bottom;endArrow=block;curved=0;rounded=0;entryX=0;entryY=0;entryDx=0;entryDy=5;fontSize=12;startSize=8;endSize=8;" parent="1" source="QwzSk42xVicqDJRy7m8V-41" target="QwzSk42xVicqDJRy7m8V-33" edge="1">
          <mxGeometry relative="1" as="geometry">
            <mxPoint x="-14" y="146" as="sourcePoint" />
          </mxGeometry>
        </mxCell>
        <mxCell id="QwzSk42xVicqDJRy7m8V-35" value="Вернуть результаты валидации" style="html=1;verticalAlign=bottom;endArrow=open;dashed=1;endSize=8;curved=0;rounded=0;exitX=0;exitY=1;exitDx=0;exitDy=-5;fontSize=12;" parent="1" source="QwzSk42xVicqDJRy7m8V-33" target="QwzSk42xVicqDJRy7m8V-41" edge="1">
          <mxGeometry relative="1" as="geometry">
            <mxPoint x="-19" y="175" as="targetPoint" />
          </mxGeometry>
        </mxCell>
        <mxCell id="QwzSk42xVicqDJRy7m8V-36" value="alt" style="shape=umlFrame;whiteSpace=wrap;html=1;pointerEvents=0;fontSize=16;" parent="1" vertex="1">
          <mxGeometry x="-282" y="185" width="448" height="299" as="geometry" />
        </mxCell>
        <mxCell id="QwzSk42xVicqDJRy7m8V-37" value="opt" style="shape=umlFrame;whiteSpace=wrap;html=1;pointerEvents=0;fontSize=16;" parent="1" vertex="1">
          <mxGeometry x="-260" y="233" width="410.5" height="94" as="geometry" />
        </mxCell>
        <mxCell id="QwzSk42xVicqDJRy7m8V-38" value="opt" style="shape=umlFrame;whiteSpace=wrap;html=1;pointerEvents=0;fontSize=16;" parent="1" vertex="1">
          <mxGeometry x="-260" y="381" width="410.5" height="94" as="geometry" />
        </mxCell>
        <mxCell id="QwzSk42xVicqDJRy7m8V-39" value="&lt;font style=&quot;font-size: 10px;&quot;&gt;[значения полей валидны]&lt;/font&gt;" style="text;strokeColor=none;fillColor=none;html=1;align=center;verticalAlign=middle;whiteSpace=wrap;rounded=0;fontSize=16;" parent="1" vertex="1">
          <mxGeometry x="-266" y="360" width="134" height="18" as="geometry" />
        </mxCell>
        <mxCell id="QwzSk42xVicqDJRy7m8V-43" value="Вывести сообщение об ошибке" style="html=1;verticalAlign=bottom;endArrow=open;dashed=1;endSize=8;curved=0;rounded=0;fontSize=12;" parent="1" edge="1">
          <mxGeometry relative="1" as="geometry">
            <mxPoint x="-304" y="289" as="targetPoint" />
            <mxPoint x="-48" y="289" as="sourcePoint" />
          </mxGeometry>
        </mxCell>
        <mxCell id="QwzSk42xVicqDJRy7m8V-42" value="Нажать &quot;Восстановить&quot;" style="html=1;verticalAlign=bottom;endArrow=block;curved=0;rounded=0;entryX=0;entryY=0;entryDx=0;entryDy=5;fontSize=12;startSize=8;endSize=8;" parent="1" source="QwzSk42xVicqDJRy7m8V-23" target="QwzSk42xVicqDJRy7m8V-41" edge="1">
          <mxGeometry relative="1" as="geometry">
            <mxPoint x="-118" y="133" as="sourcePoint" />
          </mxGeometry>
        </mxCell>
        <mxCell id="QwzSk42xVicqDJRy7m8V-44" value="&lt;font style=&quot;font-size: 10px;&quot;&gt;[значение хотя бы одного поля не валидно]&lt;/font&gt;" style="text;strokeColor=none;fillColor=none;html=1;align=center;verticalAlign=middle;whiteSpace=wrap;rounded=0;fontSize=16;" parent="1" vertex="1">
          <mxGeometry x="-263" y="215" width="209" height="18" as="geometry" />
        </mxCell>
        <mxCell id="QwzSk42xVicqDJRy7m8V-48" value="Отправить HTTP-запроса" style="html=1;verticalAlign=bottom;endArrow=block;curved=0;rounded=0;entryX=0;entryY=0;entryDx=0;entryDy=5;fontSize=12;startSize=8;endSize=8;" parent="1" source="QwzSk42xVicqDJRy7m8V-41" target="QwzSk42xVicqDJRy7m8V-47" edge="1">
          <mxGeometry relative="1" as="geometry">
            <mxPoint x="461" y="428" as="sourcePoint" />
          </mxGeometry>
        </mxCell>
        <mxCell id="QwzSk42xVicqDJRy7m8V-51" value="Валидация запроса" style="html=1;verticalAlign=bottom;endArrow=block;curved=0;rounded=0;entryX=0;entryY=0;entryDx=0;entryDy=5;fontSize=12;startSize=8;endSize=8;" parent="1" source="QwzSk42xVicqDJRy7m8V-47" target="QwzSk42xVicqDJRy7m8V-50" edge="1">
          <mxGeometry relative="1" as="geometry">
            <mxPoint x="750" y="443" as="sourcePoint" />
          </mxGeometry>
        </mxCell>
        <mxCell id="QwzSk42xVicqDJRy7m8V-57" value="Определить пользователя" style="html=1;verticalAlign=bottom;endArrow=block;curved=0;rounded=0;entryX=0;entryY=0;entryDx=0;entryDy=5;fontSize=12;startSize=8;endSize=8;" parent="1" source="QwzSk42xVicqDJRy7m8V-50" target="QwzSk42xVicqDJRy7m8V-56" edge="1">
          <mxGeometry x="0.0036" relative="1" as="geometry">
            <mxPoint x="1039" y="454" as="sourcePoint" />
            <mxPoint as="offset" />
          </mxGeometry>
        </mxCell>
        <mxCell id="QwzSk42xVicqDJRy7m8V-60" value="Запросить данные пользователя" style="html=1;verticalAlign=bottom;endArrow=block;curved=0;rounded=0;entryX=0;entryY=0;entryDx=0;entryDy=5;fontSize=12;startSize=8;endSize=8;" parent="1" source="QwzSk42xVicqDJRy7m8V-56" target="QwzSk42xVicqDJRy7m8V-59" edge="1">
          <mxGeometry relative="1" as="geometry">
            <mxPoint x="1329" y="461" as="sourcePoint" />
          </mxGeometry>
        </mxCell>
        <mxCell id="QwzSk42xVicqDJRy7m8V-61" value="Передать данные пользователя" style="html=1;verticalAlign=bottom;endArrow=open;dashed=1;endSize=8;curved=0;rounded=0;exitX=0;exitY=1;exitDx=0;exitDy=-5;fontSize=12;" parent="1" edge="1">
          <mxGeometry relative="1" as="geometry">
            <mxPoint x="830" y="529" as="targetPoint" />
            <mxPoint x="1399" y="529" as="sourcePoint" />
          </mxGeometry>
        </mxCell>
        <mxCell id="QwzSk42xVicqDJRy7m8V-67" value="alt" style="shape=umlFrame;whiteSpace=wrap;html=1;pointerEvents=0;fontSize=16;" parent="1" vertex="1">
          <mxGeometry x="405" y="535" width="448" height="329" as="geometry" />
        </mxCell>
        <mxCell id="QwzSk42xVicqDJRy7m8V-68" value="opt" style="shape=umlFrame;whiteSpace=wrap;html=1;pointerEvents=0;fontSize=16;" parent="1" vertex="1">
          <mxGeometry x="471" y="553" width="373" height="52" as="geometry" />
        </mxCell>
        <mxCell id="QwzSk42xVicqDJRy7m8V-71" value="opt" style="shape=umlFrame;whiteSpace=wrap;html=1;pointerEvents=0;fontSize=16;" parent="1" vertex="1">
          <mxGeometry x="472" y="620" width="372" height="240" as="geometry" />
        </mxCell>
        <mxCell id="QwzSk42xVicqDJRy7m8V-72" value="Уведомить об ошибке валидации" style="html=1;verticalAlign=bottom;endArrow=open;dashed=1;endSize=8;curved=0;rounded=0;fontSize=12;" parent="1" edge="1">
          <mxGeometry relative="1" as="geometry">
            <mxPoint x="541" y="581" as="targetPoint" />
            <mxPoint x="820" y="581" as="sourcePoint" />
          </mxGeometry>
        </mxCell>
        <mxCell id="QwzSk42xVicqDJRy7m8V-73" value="Уведомить об ошибке" style="html=1;verticalAlign=bottom;endArrow=open;dashed=1;endSize=8;curved=0;rounded=0;fontSize=12;" parent="1" edge="1">
          <mxGeometry relative="1" as="geometry">
            <mxPoint x="-38" y="595" as="targetPoint" />
            <mxPoint x="531" y="595" as="sourcePoint" />
          </mxGeometry>
        </mxCell>
        <mxCell id="QwzSk42xVicqDJRy7m8V-77" value="Вывести сообщение об ошибке" style="html=1;verticalAlign=bottom;endArrow=open;dashed=1;endSize=8;curved=0;rounded=0;exitX=0;exitY=1;exitDx=0;exitDy=-5;fontSize=12;" parent="1" edge="1">
          <mxGeometry relative="1" as="geometry">
            <mxPoint x="-304" y="611" as="targetPoint" />
            <mxPoint x="-48" y="611" as="sourcePoint" />
          </mxGeometry>
        </mxCell>
        <mxCell id="QwzSk42xVicqDJRy7m8V-78" value="&lt;font style=&quot;font-size: 10px;&quot;&gt;[пользователь не найден]&lt;/font&gt;" style="text;strokeColor=none;fillColor=none;html=1;align=center;verticalAlign=middle;whiteSpace=wrap;rounded=0;fontSize=16;" parent="1" vertex="1">
          <mxGeometry x="470" y="535" width="134" height="18" as="geometry" />
        </mxCell>
        <mxCell id="QwzSk42xVicqDJRy7m8V-79" value="&lt;font style=&quot;font-size: 10px;&quot;&gt;[пользователь найден]&lt;/font&gt;" style="text;strokeColor=none;fillColor=none;html=1;align=center;verticalAlign=middle;whiteSpace=wrap;rounded=0;fontSize=16;" parent="1" vertex="1">
          <mxGeometry x="463" y="601" width="134" height="18" as="geometry" />
        </mxCell>
        <mxCell id="QwzSk42xVicqDJRy7m8V-82" value="alt" style="shape=umlFrame;whiteSpace=wrap;html=1;pointerEvents=0;fontSize=16;" parent="1" vertex="1">
          <mxGeometry x="475" y="655" width="340" height="200" as="geometry" />
        </mxCell>
        <mxCell id="QwzSk42xVicqDJRy7m8V-83" value="opt" style="shape=umlFrame;whiteSpace=wrap;html=1;pointerEvents=0;fontSize=16;" parent="1" vertex="1">
          <mxGeometry x="479" y="689" width="331" height="102" as="geometry" />
        </mxCell>
        <mxCell id="QwzSk42xVicqDJRy7m8V-84" value="opt" style="shape=umlFrame;whiteSpace=wrap;html=1;pointerEvents=0;fontSize=16;" parent="1" vertex="1">
          <mxGeometry x="480" y="805" width="316" height="44" as="geometry" />
        </mxCell>
        <mxCell id="QwzSk42xVicqDJRy7m8V-85" value="&lt;font style=&quot;font-size: 10px;&quot;&gt;[у пользователя нет UUID]&lt;/font&gt;" style="text;strokeColor=none;fillColor=none;html=1;align=center;verticalAlign=middle;whiteSpace=wrap;rounded=0;fontSize=16;" parent="1" vertex="1">
          <mxGeometry x="543" y="669" width="134" height="18" as="geometry" />
        </mxCell>
        <mxCell id="QwzSk42xVicqDJRy7m8V-87" value="Уведомить об ошибке" style="html=1;verticalAlign=bottom;endArrow=open;dashed=1;endSize=8;curved=0;rounded=0;fontSize=12;" parent="1" edge="1">
          <mxGeometry relative="1" as="geometry">
            <mxPoint x="-37" y="739" as="targetPoint" />
            <mxPoint x="531" y="739" as="sourcePoint" />
          </mxGeometry>
        </mxCell>
        <mxCell id="QwzSk42xVicqDJRy7m8V-89" value="Вывести сообщение об ошибке" style="html=1;verticalAlign=bottom;endArrow=open;dashed=1;endSize=8;curved=0;rounded=0;fontSize=12;" parent="1" target="QwzSk42xVicqDJRy7m8V-23" edge="1">
          <mxGeometry relative="1" as="geometry">
            <mxPoint x="-298" y="764" as="targetPoint" />
            <mxPoint x="-47" y="760" as="sourcePoint" />
          </mxGeometry>
        </mxCell>
        <mxCell id="QwzSk42xVicqDJRy7m8V-93" value="Отправить письмо о восстановлении пароля&amp;nbsp;" style="html=1;verticalAlign=bottom;endArrow=block;curved=0;rounded=0;fontSize=12;startSize=8;endSize=8;" parent="1" target="QwzSk42xVicqDJRy7m8V-92" edge="1">
          <mxGeometry relative="1" as="geometry">
            <mxPoint x="541" y="811" as="sourcePoint" />
            <mxPoint x="1686" y="813" as="targetPoint" />
          </mxGeometry>
        </mxCell>
        <mxCell id="QwzSk42xVicqDJRy7m8V-94" value="Передать результат отправки" style="html=1;verticalAlign=bottom;endArrow=open;dashed=1;endSize=8;curved=0;rounded=0;fontSize=12;" parent="1" edge="1">
          <mxGeometry relative="1" as="geometry">
            <mxPoint x="543" y="837" as="targetPoint" />
            <mxPoint x="1725" y="837" as="sourcePoint" />
          </mxGeometry>
        </mxCell>
        <mxCell id="4E6STo8OiFJomsPPge08-3" value="" style="shape=umlLifeline;perimeter=lifelinePerimeter;whiteSpace=wrap;html=1;container=1;dropTarget=0;collapsible=0;recursiveResize=0;outlineConnect=0;portConstraint=eastwest;newEdgeStyle={&quot;curved&quot;:0,&quot;rounded&quot;:0};participant=umlActor;" parent="1" vertex="1">
          <mxGeometry x="1990" y="-81" width="20" height="1181" as="geometry" />
        </mxCell>
        <mxCell id="4E6STo8OiFJomsPPge08-17" value="" style="html=1;points=[[0,0,0,0,5],[0,1,0,0,-5],[1,0,0,0,5],[1,1,0,0,-5]];perimeter=orthogonalPerimeter;outlineConnect=0;targetShapes=umlLifeline;portConstraint=eastwest;newEdgeStyle={&quot;curved&quot;:0,&quot;rounded&quot;:0};fillColor=#ffe6cc;strokeColor=#d79b00;" parent="4E6STo8OiFJomsPPge08-3" vertex="1">
          <mxGeometry x="5" y="882" width="10" height="43" as="geometry" />
        </mxCell>
        <mxCell id="4E6STo8OiFJomsPPge08-5" value="Почтовый сервер" style="text;strokeColor=none;fillColor=none;html=1;align=center;verticalAlign=middle;whiteSpace=wrap;rounded=0;fontSize=16;" parent="1" vertex="1">
          <mxGeometry x="1929" y="-111" width="138" height="30" as="geometry" />
        </mxCell>
        <mxCell id="4E6STo8OiFJomsPPge08-6" value="&lt;font style=&quot;font-size: 10px;&quot;&gt;[у пользователя есть UUID]&lt;/font&gt;" style="text;strokeColor=none;fillColor=none;html=1;align=center;verticalAlign=middle;whiteSpace=wrap;rounded=0;fontSize=16;" parent="1" vertex="1">
          <mxGeometry x="546" y="787" width="134" height="18" as="geometry" />
        </mxCell>
        <mxCell id="4E6STo8OiFJomsPPge08-9" value="" style="html=1;points=[[0,0,0,0,5],[0,1,0,0,-5],[1,0,0,0,5],[1,1,0,0,-5]];perimeter=orthogonalPerimeter;outlineConnect=0;targetShapes=umlLifeline;portConstraint=eastwest;newEdgeStyle={&quot;curved&quot;:0,&quot;rounded&quot;:0};fillColor=#ffe6cc;strokeColor=#d79b00;" parent="1" vertex="1">
          <mxGeometry x="535" y="709" width="10" height="40" as="geometry" />
        </mxCell>
        <mxCell id="4E6STo8OiFJomsPPge08-10" value="сгенерировать UUID" style="html=1;align=left;spacingLeft=2;endArrow=block;rounded=0;edgeStyle=orthogonalEdgeStyle;curved=0;rounded=0;fontSize=12;startSize=8;endSize=8;" parent="1" edge="1">
          <mxGeometry relative="1" as="geometry">
            <mxPoint x="540" y="694" as="sourcePoint" />
            <Array as="points">
              <mxPoint x="570" y="724" />
            </Array>
            <mxPoint x="545" y="724" as="targetPoint" />
          </mxGeometry>
        </mxCell>
        <mxCell id="4E6STo8OiFJomsPPge08-12" value="Записать UUID&amp;nbsp;" style="html=1;verticalAlign=bottom;endArrow=block;curved=0;rounded=0;entryX=0;entryY=0;entryDx=0;entryDy=5;fontSize=12;startSize=8;endSize=8;" parent="1" target="4E6STo8OiFJomsPPge08-11" edge="1">
          <mxGeometry relative="1" as="geometry">
            <mxPoint x="541" y="758" as="sourcePoint" />
          </mxGeometry>
        </mxCell>
        <mxCell id="4E6STo8OiFJomsPPge08-13" value="Сообщить о результатах записи" style="html=1;verticalAlign=bottom;endArrow=open;dashed=1;endSize=8;curved=0;rounded=0;exitX=0;exitY=1;exitDx=0;exitDy=-5;fontSize=12;" parent="1" source="4E6STo8OiFJomsPPge08-11" target="QwzSk42xVicqDJRy7m8V-47" edge="1">
          <mxGeometry relative="1" as="geometry">
            <mxPoint x="1039" y="803" as="targetPoint" />
          </mxGeometry>
        </mxCell>
        <mxCell id="4E6STo8OiFJomsPPge08-15" value="Обновить данные о пользователе" style="html=1;verticalAlign=bottom;endArrow=block;curved=0;rounded=0;entryX=0;entryY=0;entryDx=0;entryDy=5;fontSize=12;startSize=8;endSize=8;exitX=1;exitY=0;exitDx=0;exitDy=5;exitPerimeter=0;" parent="1" source="4E6STo8OiFJomsPPge08-11" target="4E6STo8OiFJomsPPge08-14" edge="1">
          <mxGeometry relative="1" as="geometry">
            <mxPoint x="1113.5" y="756" as="sourcePoint" />
          </mxGeometry>
        </mxCell>
        <mxCell id="4E6STo8OiFJomsPPge08-16" value="Передать результат обновления данных" style="html=1;verticalAlign=bottom;endArrow=open;dashed=1;endSize=8;curved=0;rounded=0;exitX=0;exitY=1;exitDx=0;exitDy=-5;fontSize=12;entryX=1;entryY=1;entryDx=0;entryDy=-5;entryPerimeter=0;" parent="1" edge="1">
          <mxGeometry relative="1" as="geometry">
            <mxPoint x="1119" y="777" as="targetPoint" />
            <mxPoint x="1399" y="776" as="sourcePoint" />
          </mxGeometry>
        </mxCell>
        <mxCell id="4E6STo8OiFJomsPPge08-18" value="Отправить письмо" style="html=1;verticalAlign=bottom;endArrow=block;curved=0;rounded=0;entryX=0;entryY=0;entryDx=0;entryDy=5;fontSize=12;startSize=8;endSize=8;" parent="1" source="QwzSk42xVicqDJRy7m8V-92" edge="1">
          <mxGeometry relative="1" as="geometry">
            <mxPoint x="1733" y="809" as="sourcePoint" />
            <mxPoint x="1995" y="809" as="targetPoint" />
          </mxGeometry>
        </mxCell>
        <mxCell id="4E6STo8OiFJomsPPge08-19" value="Передать результаты отправки" style="html=1;verticalAlign=bottom;endArrow=open;dashed=1;endSize=8;curved=0;rounded=0;exitX=0;exitY=1;exitDx=0;exitDy=-5;fontSize=12;exitPerimeter=0;" parent="1" edge="1">
          <mxGeometry relative="1" as="geometry">
            <mxPoint x="1729" y="834" as="targetPoint" />
            <mxPoint x="1996.5" y="834" as="sourcePoint" />
          </mxGeometry>
        </mxCell>
        <mxCell id="4E6STo8OiFJomsPPge08-30" value="" style="html=1;points=[[0,0,0,0,5],[0,1,0,0,-5],[1,0,0,0,5],[1,1,0,0,-5]];perimeter=orthogonalPerimeter;outlineConnect=0;targetShapes=umlLifeline;portConstraint=eastwest;newEdgeStyle={&quot;curved&quot;:0,&quot;rounded&quot;:0};fontSize=16;fillColor=#ffe6cc;strokeColor=#d79b00;" parent="1" vertex="1">
          <mxGeometry x="-43" y="1015.5" width="10" height="40" as="geometry" />
        </mxCell>
        <mxCell id="4E6STo8OiFJomsPPge08-31" value="Перейти к странице&amp;nbsp;&lt;div&gt;с уведомлением об отправке письма&lt;/div&gt;" style="html=1;align=left;spacingLeft=2;endArrow=block;rounded=0;edgeStyle=orthogonalEdgeStyle;curved=0;rounded=0;fontSize=12;startSize=8;endSize=8;" parent="1" edge="1">
          <mxGeometry x="0.0288" y="8" relative="1" as="geometry">
            <mxPoint x="-38" y="1002.5" as="sourcePoint" />
            <Array as="points">
              <mxPoint x="19" y="1003" />
              <mxPoint x="19" y="1033" />
            </Array>
            <mxPoint x="-33" y="1032.5" as="targetPoint" />
            <mxPoint as="offset" />
          </mxGeometry>
        </mxCell>
        <mxCell id="4E6STo8OiFJomsPPge08-32" value="Вывести сообщение об ошибке" style="html=1;verticalAlign=bottom;endArrow=open;dashed=1;endSize=8;curved=0;rounded=0;fontSize=12;" parent="1" edge="1">
          <mxGeometry relative="1" as="geometry">
            <mxPoint x="-304" y="957.5" as="targetPoint" />
            <mxPoint x="-47" y="957.5" as="sourcePoint" />
          </mxGeometry>
        </mxCell>
        <mxCell id="4E6STo8OiFJomsPPge08-33" value="Отобразить страницу" style="html=1;verticalAlign=bottom;endArrow=open;dashed=1;endSize=8;curved=0;rounded=0;fontSize=12;" parent="1" edge="1">
          <mxGeometry relative="1" as="geometry">
            <mxPoint x="-305" y="1062.5" as="targetPoint" />
            <mxPoint x="-48" y="1062.5" as="sourcePoint" />
          </mxGeometry>
        </mxCell>
        <mxCell id="4E6STo8OiFJomsPPge08-34" value="alt" style="shape=umlFrame;whiteSpace=wrap;html=1;pointerEvents=0;fontSize=17;" parent="1" vertex="1">
          <mxGeometry x="-362" y="860" width="370" height="216.5" as="geometry" />
        </mxCell>
        <mxCell id="4E6STo8OiFJomsPPge08-35" value="opt" style="shape=umlFrame;whiteSpace=wrap;html=1;pointerEvents=0;fontSize=16;" parent="1" vertex="1">
          <mxGeometry x="-357" y="908.5" width="358" height="74" as="geometry" />
        </mxCell>
        <mxCell id="4E6STo8OiFJomsPPge08-36" value="opt" style="shape=umlFrame;whiteSpace=wrap;html=1;pointerEvents=0;fontSize=17;" parent="1" vertex="1">
          <mxGeometry x="-358" y="997.5" width="358" height="74" as="geometry" />
        </mxCell>
        <mxCell id="4E6STo8OiFJomsPPge08-37" value="&lt;font style=&quot;font-size: 10px;&quot;&gt;[ошибка отправки&lt;/font&gt;&lt;span style=&quot;font-size: 10px; background-color: initial;&quot;&gt;]&lt;/span&gt;" style="text;strokeColor=none;fillColor=none;html=1;align=center;verticalAlign=middle;whiteSpace=wrap;rounded=0;fontSize=16;" parent="1" vertex="1">
          <mxGeometry x="-311" y="886.5" width="163" height="18" as="geometry" />
        </mxCell>
        <mxCell id="4E6STo8OiFJomsPPge08-38" value="&lt;font style=&quot;font-size: 10px;&quot;&gt;[успешная отправка]&lt;/font&gt;" style="text;strokeColor=none;fillColor=none;html=1;align=center;verticalAlign=middle;whiteSpace=wrap;rounded=0;fontSize=16;" parent="1" vertex="1">
          <mxGeometry x="-303" y="978.5" width="163" height="18" as="geometry" />
        </mxCell>
      </root>
    </mxGraphModel>
  </diagram>
</mxfile>
